# xmcd
#
# Track frame offsets:
#	150
#	17599
#	37739
#	54422
#	78779
#	99453
#	118266
#	133634
#	150120
#
# Disc length: 2199 seconds
#
# Revision: 0
# Processed by: cddbd v1.5.1PL2 Copyright (c) Steve Scherf et al.
# Submitted via: dBpowerAMP V4.0
#
DISCID=5a089509
DTITLE=Stevie S. - On The Road To Freedom
DYEAR=2002
DGENRE=Blues Electric
TTITLE0=Billie Jo
TTITLE1=Already Left
TTITLE2=Played Like A Fool
TTITLE3=Daddy's Lil Girl
TTITLE4=The Angel Song
TTITLE5=Hardworking Man
TTITLE6=Never Get It Back
TTITLE7=Feet On The Ground
TTITLE8=Please Accept My Love
EXTD=
EXTT0=
EXTT1=
EXTT2=
EXTT3=
EXTT4=
EXTT5=
EXTT6=
EXTT7=
EXTT8=
PLAYORDER=
